<svg width="57" height="38" viewBox="0 0 57 38" fill="none" xmlns="http://www.w3.org/2000/svg">
<path d="M1.70387 19.4187C1.70387 19.7374 1.85914 20.0153 2.16968 20.2523C2.48022 20.4892 2.88065 20.6077 3.37097 20.6077C3.86129 20.6077 4.24946 20.4892 4.53548 20.2523C4.82151 20.0153 4.96452 19.7006 4.96452 19.3084C4.96452 18.8099 4.66624 18.3972 4.06968 18.0703L2.25548 17.1019C1.20946 16.5381 0.686452 15.7331 0.686452 14.6871C0.686452 14.017 0.931613 13.4409 1.42194 12.9587C1.91226 12.4766 2.64366 12.2355 3.61613 12.2355C4.26989 12.2355 4.89097 12.3662 5.47936 12.6277C6.06774 12.8892 6.36194 13.1998 6.36194 13.5594C6.36194 13.6983 6.31699 13.8576 6.2271 14.0374L5.63871 15.1652L5.20968 15.0303V14.0006C5.20968 13.6329 5.04624 13.3428 4.71935 13.1303C4.40065 12.9178 4.01656 12.8116 3.5671 12.8116C3.12581 12.8116 2.78667 12.9424 2.54968 13.2039C2.31269 13.4654 2.19419 13.7637 2.19419 14.0987C2.19419 14.7688 2.49656 15.2632 3.10129 15.5819L4.65806 16.4032C5.84301 17.0243 6.43548 17.8415 6.43548 18.8548C6.43548 19.623 6.14538 20.2032 5.56516 20.5955C4.99312 20.9877 4.26581 21.1839 3.38323 21.1839C2.72129 21.1839 2.08387 21.0531 1.47097 20.7916C0.858065 20.5301 0.551613 20.2196 0.551613 19.86C0.551613 19.7211 0.596559 19.5617 0.686452 19.3819L1.27484 18.2542L1.70387 18.389V19.4187ZM12.1393 12.9097H12.0167V20.5097H13.2425V21H8.95222V20.5097H10.178V12.9097H10.0554C9.51609 12.9097 9.14426 12.9628 8.93996 13.069C8.74383 13.1753 8.60899 13.4123 8.53544 13.78L8.29028 14.9935H7.81222L7.48125 12.9342C7.48125 12.7708 7.51802 12.6523 7.59157 12.5787C7.66512 12.497 7.74276 12.452 7.82448 12.4439C7.91437 12.4275 8.04921 12.4194 8.22899 12.4194H13.9658C14.1456 12.4194 14.2763 12.4275 14.358 12.4439C14.4479 12.452 14.5296 12.497 14.6032 12.5787C14.6767 12.6523 14.7135 12.7708 14.7135 12.9342L14.3825 14.9935H13.9045L13.6593 13.78C13.5858 13.4123 13.4468 13.1753 13.2425 13.069C13.0464 12.9628 12.6787 12.9097 12.1393 12.9097Z" fill="#313131"/>
<path d="M23.7743 8.72194C23.7743 7.42258 24.1257 6.35204 24.8285 5.51032C25.5394 4.66043 26.5487 4.23548 27.8562 4.23548C29.1719 4.23548 30.1852 4.65634 30.8962 5.49806C31.6072 6.33978 31.9627 7.41441 31.9627 8.72194C31.9627 10.0213 31.6072 11.0918 30.8962 11.9335C30.1852 12.7671 29.1719 13.1839 27.8562 13.1839C26.5487 13.1839 25.5394 12.7671 24.8285 11.9335C24.1257 11.0918 23.7743 10.0213 23.7743 8.72194ZM27.8685 4.81161C27.3863 4.81161 26.9777 4.99957 26.6427 5.37548C25.9971 6.07828 25.6743 7.19376 25.6743 8.72194C25.6743 10.2419 25.9971 11.3492 26.6427 12.0439C26.9859 12.4198 27.3945 12.6077 27.8685 12.6077C28.5713 12.6077 29.1106 12.2318 29.4865 11.48C29.8706 10.7282 30.0627 9.80882 30.0627 8.72194C30.0627 7.62688 29.8706 6.70344 29.4865 5.95161C29.1106 5.19161 28.5713 4.81161 27.8685 4.81161Z" fill="#313131"/>
<path d="M40.8581 13.9097V13.4194H43.5548C45.5406 13.4194 46.7991 13.877 47.3303 14.7923C47.5346 15.1518 47.6368 15.589 47.6368 16.1039C47.6368 17.297 46.9585 18.0978 45.6019 18.5065C46.1168 18.6781 46.46 19.0335 46.6316 19.5729L46.9994 20.7987C47.0566 21.003 47.1301 21.146 47.22 21.2277C47.3099 21.3095 47.4611 21.3503 47.6735 21.3503C47.886 21.3503 48.1353 21.2318 48.4213 20.9948L48.6419 21.289C47.9882 21.8856 47.2935 22.1839 46.5581 22.1839C46.1822 22.1839 45.8798 22.1185 45.651 21.9877C45.4222 21.857 45.2587 21.6282 45.1606 21.3013L44.5845 19.4135C44.511 19.1766 44.3966 19.0131 44.2413 18.9232C44.086 18.8333 43.8163 18.7843 43.4323 18.7761V21.5097H44.4129V22H40.8581V21.5097H41.5935V13.9097H40.8581ZM43.5548 13.9097H43.4323V18.2858H43.5548C44.2004 18.2858 44.7357 18.0978 45.1606 17.7219C45.5856 17.3378 45.7981 16.7985 45.7981 16.1039C45.7981 15.4092 45.5856 14.8699 45.1606 14.4858C44.7357 14.1017 44.2004 13.9097 43.5548 13.9097ZM55.1916 22H49.6877V21.5097H50.4232V13.9097H49.6877V13.4194H54.9464C55.1262 13.4194 55.2569 13.4275 55.3387 13.4439C55.4286 13.452 55.5103 13.497 55.5838 13.5787C55.6574 13.6523 55.6942 13.7708 55.6942 13.9342L55.3632 15.9935H54.8851L54.64 14.78C54.5664 14.4123 54.4275 14.1753 54.2232 14.069C54.0271 13.9628 53.6593 13.9097 53.12 13.9097H52.2619V18.1019H55.0813V18.6535H52.2619V21.5097H53.3651C53.8963 21.5097 54.26 21.4566 54.4561 21.3503C54.6604 21.2441 54.8034 21.0071 54.8851 20.6394L55.1303 19.5484H55.6083L55.9393 21.4852C55.9393 21.6486 55.9025 21.7712 55.829 21.8529C55.7554 21.9265 55.6737 21.9714 55.5838 21.9877C55.5021 21.9959 55.3714 22 55.1916 22Z" fill="#313131"/>
<path d="M23.9582 25.7484V31.5097C23.9582 32.3678 23.6967 33.0011 23.1737 33.4097C22.6588 33.8183 21.9642 34.0226 21.0898 34.0226C20.5913 34.0226 20.1173 33.8919 19.6679 33.6304C19.2184 33.3689 18.9937 33.0583 18.9937 32.6987C18.9937 32.5598 19.0386 32.4005 19.1285 32.2207L19.864 30.7987L20.3053 30.9336L20.195 31.6936C20.1623 31.9796 20.1459 32.2493 20.1459 32.5026C20.1459 32.7559 20.2317 32.9766 20.4034 33.1646C20.5831 33.3525 20.8201 33.4465 21.1143 33.4465C21.4167 33.4465 21.6578 33.3443 21.8375 33.14C22.0255 32.9357 22.1195 32.6293 22.1195 32.2207V25.7484H20.955V25.2581H24.6937V25.7484H23.9582Z" fill="#313131"/>
<path d="M34.6227 25.7484V25.2581H36.9517V25.7484H36.2162V30.8846C36.2162 31.4729 36.1263 31.9796 35.9465 32.4046C35.7749 32.8295 35.5338 33.1564 35.2233 33.3852C34.6431 33.8101 33.9199 34.0226 33.0536 34.0226C32.1874 34.0226 31.456 33.8061 30.8594 33.3729C30.5407 33.1523 30.2915 32.8295 30.1117 32.4046C29.9319 31.9796 29.842 31.4689 29.842 30.8723V25.7484H29.1065V25.2581H32.4162V25.7484H31.6807V31.2646C31.6807 31.902 31.8523 32.3923 32.1956 32.7355C32.5388 33.0787 32.9596 33.2504 33.4581 33.2504C33.9648 33.2504 34.4061 33.0787 34.782 32.7355C35.1661 32.3841 35.3581 31.8938 35.3581 31.2646V25.7484H34.6227Z" fill="#313131"/>
<path d="M6.3064 3.37097L22.6204 17.3953C23.2134 17.9051 23.1839 18.8324 22.5595 19.3034L6.3064 31.5645" stroke="black" stroke-width="1.83871"/>
<path d="M48.5967 3.06445L32.2827 17.0887C31.6896 17.5986 31.7192 18.5259 32.3436 18.9969L48.5967 31.258" stroke="black" stroke-width="1.83871"/>
</svg>
