<svg width="125" height="84" viewBox="0 0 125 84" fill="none" xmlns="http://www.w3.org/2000/svg">
<path d="M3.76645 43.5045C3.76645 44.209 4.10968 44.8232 4.79613 45.3471C5.48258 45.871 6.36774 46.1329 7.45161 46.1329C8.53548 46.1329 9.39355 45.871 10.0258 45.3471C10.6581 44.8232 10.9742 44.1277 10.9742 43.2606C10.9742 42.1587 10.3148 41.2465 8.99613 40.5239L4.98581 38.3832C2.67355 37.1368 1.51742 35.3574 1.51742 33.0452C1.51742 31.5639 2.05935 30.2903 3.14323 29.2245C4.2271 28.1587 5.84387 27.6258 7.99355 27.6258C9.43871 27.6258 10.8116 27.9148 12.1123 28.4929C13.4129 29.071 14.0632 29.7574 14.0632 30.5523C14.0632 30.8594 13.9639 31.2116 13.7652 31.609L12.4645 34.1019L11.5161 33.8039V31.5277C11.5161 30.7148 11.1548 30.0736 10.4323 29.6039C9.72774 29.1342 8.87871 28.8994 7.88516 28.8994C6.90968 28.8994 6.16 29.1884 5.63613 29.7665C5.11226 30.3445 4.85032 31.0039 4.85032 31.7445C4.85032 33.2258 5.51871 34.3187 6.85548 35.0232L10.2968 36.8387C12.9161 38.2116 14.2258 40.0181 14.2258 42.2581C14.2258 43.9561 13.5845 45.2387 12.3019 46.1058C11.0374 46.9729 9.42968 47.4065 7.47871 47.4065C6.01548 47.4065 4.60645 47.1174 3.25161 46.5394C1.89677 45.9613 1.21935 45.2748 1.21935 44.48C1.21935 44.1729 1.31871 43.8206 1.51742 43.4232L2.81806 40.9303L3.76645 41.2284V43.5045ZM26.8343 29.1161H26.5633V45.9161H29.273V47H19.7891V45.9161H22.4988V29.1161H22.2278C21.0356 29.1161 20.2136 29.2336 19.762 29.4684C19.3285 29.7032 19.0304 30.2271 18.8678 31.04L18.3259 33.7226H17.2691L16.5375 29.1703C16.5375 28.809 16.6188 28.5471 16.7814 28.3845C16.9439 28.2039 17.1156 28.1045 17.2962 28.0865C17.4949 28.0503 17.793 28.0323 18.1904 28.0323H30.8717C31.2691 28.0323 31.5581 28.0503 31.7388 28.0865C31.9375 28.1045 32.1181 28.2039 32.2807 28.3845C32.4433 28.5471 32.5246 28.809 32.5246 29.1703L31.793 33.7226H30.7362L30.1943 31.04C30.0317 30.2271 29.7246 29.7032 29.273 29.4684C28.8394 29.2336 28.0265 29.1161 26.8343 29.1161Z" fill="white"/>
<path d="M52.2904 19.5432C52.2904 16.671 53.0672 14.3045 54.6207 12.4439C56.1923 10.5652 58.4233 9.62581 61.3136 9.62581C64.222 9.62581 66.462 10.5561 68.0336 12.4168C69.6052 14.2774 70.391 16.6529 70.391 19.5432C70.391 22.4155 69.6052 24.7819 68.0336 26.6426C66.462 28.4852 64.222 29.4065 61.3136 29.4065C58.4233 29.4065 56.1923 28.4852 54.6207 26.6426C53.0672 24.7819 52.2904 22.4155 52.2904 19.5432ZM61.3407 10.8994C60.2749 10.8994 59.3717 11.3148 58.631 12.1458C57.2039 13.6994 56.4904 16.1652 56.4904 19.5432C56.4904 22.9032 57.2039 25.351 58.631 26.8865C59.3897 27.7174 60.293 28.1329 61.3407 28.1329C62.8943 28.1329 64.0865 27.3019 64.9175 25.64C65.7665 23.9781 66.191 21.9458 66.191 19.5432C66.191 17.1226 65.7665 15.0813 64.9175 13.4194C64.0865 11.7394 62.8943 10.8994 61.3407 10.8994Z" fill="white"/>
<path d="M89.8968 30.1161V29.0323H95.8581C100.248 29.0323 103.03 30.0439 104.204 32.0671C104.655 32.8619 104.881 33.8284 104.881 34.9665C104.881 37.6039 103.382 39.3742 100.383 40.2774C101.521 40.6568 102.28 41.4426 102.659 42.6348L103.472 45.3445C103.599 45.7961 103.761 46.1123 103.96 46.2929C104.159 46.4735 104.493 46.5639 104.963 46.5639C105.432 46.5639 105.983 46.3019 106.615 45.7781L107.103 46.4284C105.658 47.7471 104.123 48.4065 102.497 48.4065C101.666 48.4065 100.997 48.2619 100.492 47.9729C99.9858 47.6839 99.6245 47.1781 99.4077 46.4555L98.1342 42.2826C97.9716 41.7587 97.7187 41.3974 97.3755 41.1987C97.0323 41 96.4361 40.8916 95.5871 40.8735V46.9161H97.7548V48H89.8968V46.9161H91.5226V30.1161H89.8968ZM95.8581 30.1161H95.5871V39.7897H95.8581C97.2852 39.7897 98.4684 39.3742 99.4077 38.5432C100.347 37.6942 100.817 36.5019 100.817 34.9665C100.817 33.431 100.347 32.2387 99.4077 31.3897C98.4684 30.5406 97.2852 30.1161 95.8581 30.1161ZM121.581 48H109.415V46.9161H111.041V30.1161H109.415V29.0323H121.039C121.437 29.0323 121.726 29.0503 121.907 29.0865C122.105 29.1045 122.286 29.2039 122.448 29.3845C122.611 29.5471 122.692 29.809 122.692 30.1703L121.961 34.7226H120.904L120.362 32.04C120.199 31.2271 119.892 30.7032 119.441 30.4684C119.007 30.2336 118.194 30.1161 117.002 30.1161H115.105V39.3832H121.337V40.6026H115.105V46.9161H117.544C118.718 46.9161 119.522 46.7987 119.956 46.5639C120.407 46.329 120.723 45.8052 120.904 44.9923L121.446 42.5806H122.503L123.234 46.8619C123.234 47.2232 123.153 47.4942 122.99 47.6748C122.828 47.8374 122.647 47.9368 122.448 47.9729C122.268 47.991 121.979 48 121.581 48Z" fill="white"/>
<path d="M52.6968 57.1803V69.9158C52.6968 71.8126 52.1188 73.2126 50.9626 74.1158C49.8246 75.019 48.2891 75.4707 46.3562 75.4707C45.2542 75.4707 44.2065 75.1816 43.213 74.6036C42.2194 74.0255 41.7226 73.339 41.7226 72.5442C41.7226 72.2371 41.822 71.8849 42.0207 71.4874L43.6465 68.3442L44.622 68.6423L44.3781 70.3223C44.3059 70.9545 44.2697 71.5507 44.2697 72.1107C44.2697 72.6707 44.4594 73.1584 44.8388 73.5739C45.2362 73.9894 45.76 74.1971 46.4104 74.1971C47.0788 74.1971 47.6117 73.9713 48.0091 73.5197C48.4246 73.0681 48.6323 72.3907 48.6323 71.4874V57.1803H46.0581V56.0965H54.3226V57.1803H52.6968Z" fill="white"/>
<path d="M76.2711 57.1803V56.0965H81.4195V57.1803H79.7937V68.5339C79.7937 69.8345 79.595 70.9545 79.1975 71.8939C78.8182 72.8332 78.2853 73.5558 77.5988 74.0616C76.3162 75.001 74.7175 75.4707 72.8027 75.4707C70.8879 75.4707 69.2711 74.992 67.9524 74.0345C67.2479 73.5468 66.6969 72.8332 66.2995 71.8939C65.9021 70.9545 65.7033 69.8255 65.7033 68.5068V57.1803H64.0775V56.0965H71.3937V57.1803H69.7679V69.3739C69.7679 70.7829 70.1472 71.8668 70.9059 72.6255C71.6646 73.3842 72.595 73.7636 73.6969 73.7636C74.8169 73.7636 75.7924 73.3842 76.6233 72.6255C77.4724 71.8487 77.8969 70.7649 77.8969 69.3739V57.1803H76.2711Z" fill="white"/>
<path d="M13.6772 7.4519L49.7397 38.453C51.0507 39.5799 50.9853 41.6298 49.6052 42.6709L13.6772 69.7745" stroke="white" stroke-width="4.06452"/>
<path d="M107.161 6.77417L71.0989 37.7752C69.7879 38.9022 69.8533 40.9521 71.2334 41.9932L107.161 69.0967" stroke="white" stroke-width="4.06452"/>
</svg>
